<svg class="w-12 h-12" fill="none" height="132" viewBox="0 0 134 132" width="134" xmlns="http://www.w3.org/2000/svg" xmlns:xlink="http://www.w3.org/1999/xlink"><linearGradient id="a"><stop offset="0" stop-color="#fff"></stop><stop offset=".1217" stop-color="#fffbfb"></stop><stop offset=".241" stop-color="#fff0ef"></stop><stop offset=".3594" stop-color="#ffdedc"></stop><stop offset=".4773" stop-color="#ffc3c0"></stop><stop offset=".5948" stop-color="#ffa29c"></stop><stop offset=".7121" stop-color="#ff7970"></stop><stop offset=".8272" stop-color="#ff493e"></stop><stop offset=".8616" stop-color="#ff392d"></stop><stop offset="1" stop-color="#ff2d20"></stop></linearGradient><linearGradient id="b" gradientUnits="userSpaceOnUse" x1="27.8771" x2="86.7363" xlink:href="#a" y1="65.8138" y2="65.8138"></linearGradient><linearGradient id="c" gradientUnits="userSpaceOnUse" x1="54.7828" x2="54.7828" xlink:href="#a" y1="57.2727" y2="86.9087"></linearGradient><path d="m129.001 0h-124.22756c-2.20914 0-4.000002 1.79086-4.000002 4v123.628c0 2.209 1.790872 4 4.000012 4h124.22755c2.209 0 4-1.791 4-4v-123.628c0-2.20914-1.791-4-4-4z" fill="#ff2d20"></path><path d="m81.5414 89.0681h-42.8088v-56.1614h-10.8537v65.8141h9.0356 1.8181 47.9877z" fill="url(#b)"></path><path d="m105.894 32.9067h-10.3027v55.229l-30.0267-55.229h-15.8673v48.3734h10.1374v-37.7883l30.0268 55.229h16.0325z" fill="#fff"></path><path d="m59.8347 57.2583h-10.1374v29.6163h10.1374z" fill="url(#c)"></path></svg>
